<svg xmlns="http://www.w3.org/2000/svg" viewBox="0 0 400 200" fill="none">
  <!-- Car body -->
  <ellipse cx="200" cy="155" rx="165" ry="12" fill="rgba(0,0,0,0.3)"/>
  <!-- Main body -->
  <path d="M40 130 Q45 100 80 90 Q110 82 145 78 Q170 60 200 55 Q230 50 255 55 Q280 58 300 75 Q325 82 345 95 Q365 105 368 130 Z" fill="#C0392B"/>
  <path d="M40 130 Q45 100 80 90 Q110 82 145 78 Q170 60 200 55 Q230 50 255 55 Q280 58 300 75 Q325 82 345 95 Q365 105 368 130 L368 148 Q350 155 200 158 Q80 158 40 148 Z" fill="#E74C3C"/>
  <!-- Roof -->
  <path d="M145 78 Q160 50 195 42 Q225 36 258 45 Q285 55 300 75 Q280 68 255 65 Q225 60 200 62 Q175 65 155 72 Z" fill="#C0392B"/>
  <!-- Windshield -->
  <path d="M152 76 Q168 52 200 46 Q228 41 252 50 Q270 60 278 74 Q255 66 225 63 Q195 60 168 66 Z" fill="rgba(150,200,255,0.25)" stroke="rgba(255,255,255,0.15)" stroke-width="1"/>
  <!-- Rear window -->
  <path d="M300 75 Q318 78 335 90 Q348 100 352 112 Q330 100 310 90 Z" fill="rgba(150,200,255,0.2)" stroke="rgba(255,255,255,0.1)" stroke-width="1"/>
  <!-- Door lines -->
  <path d="M200 158 L200 82" stroke="rgba(0,0,0,0.2)" stroke-width="1.5"/>
  <path d="M150 155 Q148 130 152 100" stroke="rgba(0,0,0,0.15)" stroke-width="1"/>
  <path d="M250 156 Q252 130 252 98" stroke="rgba(0,0,0,0.15)" stroke-width="1"/>
  <!-- Door handles -->
  <rect x="168" y="110" width="18" height="4" rx="2" fill="rgba(0,0,0,0.3)"/>
  <rect x="222" y="110" width="18" height="4" rx="2" fill="rgba(0,0,0,0.3)"/>
  <!-- Front lights -->
  <path d="M42 118 Q46 112 58 110 Q65 109 70 112 Q60 114 52 120 Z" fill="rgba(255,240,200,0.9)"/>
  <ellipse cx="56" cy="116" rx="8" ry="5" fill="rgba(255,240,180,0.5)"/>
  <!-- Rear lights -->
  <path d="M355 115 Q362 110 368 118 Q365 122 358 124 Q350 122 348 116 Z" fill="#FF6B6B"/>
  <ellipse cx="358" cy="118" rx="7" ry="5" fill="rgba(255,100,100,0.6)"/>
  <!-- Front wheel arch -->
  <path d="M68 148 Q68 125 88 120 Q108 115 128 125 Q148 133 148 148" fill="#B03A2E"/>
  <!-- Rear wheel arch -->
  <path d="M258 148 Q258 125 278 120 Q298 115 318 125 Q338 133 338 148" fill="#B03A2E"/>
  <!-- Front wheel -->
  <circle cx="108" cy="148" r="24" fill="#1a1a1a"/>
  <circle cx="108" cy="148" r="17" fill="#2a2a2a"/>
  <circle cx="108" cy="148" r="10" fill="#3a3a3a"/>
  <circle cx="108" cy="148" r="4" fill="#888"/>
  <!-- Rear wheel -->
  <circle cx="298" cy="148" r="24" fill="#1a1a1a"/>
  <circle cx="298" cy="148" r="17" fill="#2a2a2a"/>
  <circle cx="298" cy="148" r="10" fill="#3a3a3a"/>
  <circle cx="298" cy="148" r="4" fill="#888"/>
  <!-- Grille -->
  <path d="M48 122 Q52 118 65 116 Q72 115 78 118 Q70 120 60 124 Z" fill="rgba(0,0,0,0.5)"/>
  <!-- Peugeot logo hint -->
  <circle cx="80" cy="118" r="5" fill="rgba(255,255,255,0.3)" stroke="rgba(255,255,255,0.5)" stroke-width="1"/>
  <!-- Highlight -->
  <path d="M160 65 Q185 52 220 50 Q255 49 280 62" stroke="rgba(255,255,255,0.2)" stroke-width="3" stroke-linecap="round"/>
</svg>
